<svg id="Layer_2" data-name="Layer 2" xmlns="http://www.w3.org/2000/svg" viewBox="0 0 512 512"><defs><style>.cls-1{fill:#0d6635;}.cls-2{fill:#a5ce39;}</style></defs><title>Artboard 1</title><path class="cls-1" d="M143.19,460.07s-57-25-89-96,44.5-221,44.5-221,23.5-55,27.5-74,6-41,6-41,85,46,155,141c0,0-133,51-155,132,0,0-6-52,39-122,0,0-60,56-67,129,0,0-13,55,27,111Z"/><path class="cls-2" d="M446.19,107.07c-41,44-159,80-159,80-31,10-70,35-70,35-69,42-74,112-74,112-10.36,73.85,23.59,130,23.59,130-10.41-118,41.41-161,41.41-161l32-7.57c-49,27.43-46,83.57-46,83.57.35,33.24,4.13,55.95,8.9,71.43l13.66-15.69,37.84-43.13-30.6,4.7,76.64-74-40,6.78,77.91-83.81,100.08-26.55-88.5,71,46.15-6.41L297.6,364.73s41.74-7.72,43-7.32L205.41,457.32c8.53,22.56,18.78,25.75,18.78,25.75,87,7,146-31,146-31,71-36,89-137,89-137C479.19,212.07,446.19,107.07,446.19,107.07Z"/></svg>